<svg width="1024" height="1024" viewBox="0 0 1024 1024" xmlns="http://www.w3.org/2000/svg">
  <defs>
    <linearGradient id="bg" x1="0" y1="0" x2="0" y2="1">
      <stop offset="0" stop-color="#2b2565"/>
      <stop offset="0.55" stop-color="#161238"/>
      <stop offset="1" stop-color="#0a0918"/>
    </linearGradient>
    <radialGradient id="glow" cx="0.5" cy="0.46" r="0.5">
      <stop offset="0" stop-color="#5aa8ff" stop-opacity="0.55"/>
      <stop offset="0.6" stop-color="#4a7dff" stop-opacity="0.18"/>
      <stop offset="1" stop-color="#4a7dff" stop-opacity="0"/>
    </radialGradient>
    <linearGradient id="fTable" x1="0" y1="0" x2="0" y2="1">
      <stop offset="0" stop-color="#dff3ff"/>
      <stop offset="1" stop-color="#7cc8ff"/>
    </linearGradient>
    <linearGradient id="fLeft" x1="0" y1="0" x2="1" y2="1">
      <stop offset="0" stop-color="#9fd9ff"/>
      <stop offset="1" stop-color="#4f8cf7"/>
    </linearGradient>
    <linearGradient id="fRight" x1="1" y1="0" x2="0" y2="1">
      <stop offset="0" stop-color="#8b7bff"/>
      <stop offset="1" stop-color="#5a5af0"/>
    </linearGradient>
    <linearGradient id="pLeft" x1="0" y1="0" x2="0.6" y2="1">
      <stop offset="0" stop-color="#4f8cf7"/>
      <stop offset="1" stop-color="#2a3fae"/>
    </linearGradient>
    <linearGradient id="pMid" x1="0" y1="0" x2="0" y2="1">
      <stop offset="0" stop-color="#9fd9ff"/>
      <stop offset="1" stop-color="#3d63e8"/>
    </linearGradient>
    <linearGradient id="pRight" x1="1" y1="0" x2="0.4" y2="1">
      <stop offset="0" stop-color="#6f66ff"/>
      <stop offset="1" stop-color="#312a96"/>
    </linearGradient>
  </defs>

  <!-- macOS rounded-rect tile -->
  <rect x="0" y="0" width="1024" height="1024" rx="228" fill="url(#bg)"/>
  <rect x="0" y="0" width="1024" height="1024" rx="228" fill="url(#glow)"/>
  <!-- glass top highlight -->
  <path d="M228 2h568c125 0 226 101 226 226v40C842 180 672 132 512 132S182 180 2 268v-40C2 103 103 2 228 2z"
        fill="#ffffff" opacity="0.07"/>

  <!-- gem -->
  <g stroke="#ffffff" stroke-opacity="0.55" stroke-width="7" stroke-linejoin="round">
    <!-- crown -->
    <polygon points="392,336 632,336 512,476" fill="url(#fTable)"/>
    <polygon points="392,336 272,476 512,476" fill="url(#fLeft)"/>
    <polygon points="632,336 752,476 512,476" fill="url(#fRight)"/>
    <!-- pavilion -->
    <polygon points="272,476 432,476 512,796" fill="url(#pLeft)"/>
    <polygon points="432,476 592,476 512,796" fill="url(#pMid)"/>
    <polygon points="592,476 752,476 512,796" fill="url(#pRight)"/>
  </g>

  <!-- specular streak -->
  <polygon points="404,352 470,352 330,468 296,468" fill="#ffffff" opacity="0.55"/>

  <!-- sparkles -->
  <path d="M742 268l10 34 34 10-34 10-10 34-10-34-34-10 34-10z" fill="#ffffff" opacity="0.9"/>
  <path d="M306 648l6 20 20 6-20 6-6 20-6-20-20-6 20-6z" fill="#ffffff" opacity="0.7"/>
  <path d="M666 760l5 16 16 5-16 5-5 16-5-16-16-5 16-5z" fill="#ffffff" opacity="0.55"/>
</svg>
